<svg xmlns="http://www.w3.org/2000/svg" width="37" height="28" viewBox="0 0 37 28" fill="none"><g id="Group"><g id="Group_2"><g id="Group_3"><g id="Group_4"><path id="Vector" d="M24.6436 27.4194H20.5491C20.4383 27.4194 20.3354 27.3561 20.2919 27.2533C20.2444 27.1544 20.2603 27.0357 20.3315 26.9486L31.63 13.6602C31.6854 13.5969 31.7645 13.5613 31.8476 13.5613H35.9421C36.0528 13.5613 36.1557 13.6246 36.1992 13.7275C36.2427 13.8304 36.2309 13.9451 36.1597 14.0321L24.8612 27.3205C24.8058 27.3838 24.7266 27.4194 24.6436 27.4194ZM21.1622 26.8497H24.5091L35.3249 14.131H31.9781L21.1622 26.8497Z" fill="#E3DFD7"></path><path id="Vector_2" d="M24.6435 27.6924H20.549C20.3314 27.6924 20.1336 27.5658 20.0426 27.368C19.9517 27.1702 19.9833 26.9368 20.1257 26.7746L31.4242 13.4862C31.531 13.3636 31.6853 13.2884 31.8475 13.2884H35.942C36.1596 13.2884 36.3574 13.415 36.4484 13.6128C36.5394 13.8106 36.5078 14.044 36.3693 14.2062L25.0708 27.4946C24.964 27.6172 24.8097 27.6884 24.6475 27.6884L24.6435 27.6924ZM31.8475 13.8343L20.5411 27.1306L24.6475 27.1504C24.6475 27.1504 24.6554 27.1504 24.6554 27.1465L35.9539 13.8581L31.8475 13.8383V13.8343ZM24.6396 27.1227H20.5807L31.8554 13.8581H35.9144L24.6396 27.1227ZM21.7517 26.5807H24.3864L34.7394 14.404H32.1047L21.7517 26.5807Z" fill="#E3DFD7"></path></g><g id="Group_5"><path id="Vector_3" d="M20.5451 27.4195H16.4505C16.3398 27.4195 16.2369 27.3562 16.1934 27.2533C16.1459 27.1544 16.1617 27.0357 16.233 26.9487L27.5315 13.6603C27.5868 13.597 27.666 13.5614 27.749 13.5614H31.8436C31.9543 13.5614 32.0572 13.6247 32.1007 13.7276C32.1442 13.8304 32.1324 13.9451 32.0611 14.0322L20.7626 27.3206C20.7073 27.3839 20.6281 27.4195 20.5451 27.4195ZM17.0637 26.8498H20.4106L31.2264 14.1311H27.8796L17.0637 26.8498Z" fill="#E3DFD7"></path><path id="Vector_4" d="M20.5451 27.6924H16.4506C16.233 27.6924 16.0352 27.5658 15.9442 27.368C15.8532 27.1702 15.8849 26.9408 16.0273 26.7746L27.3258 13.4862C27.4326 13.3636 27.5869 13.2924 27.7491 13.2924H31.8436C32.0612 13.2924 32.259 13.419 32.35 13.6168C32.441 13.8106 32.4093 14.044 32.2709 14.2102L20.9723 27.4986C20.8655 27.6212 20.7112 27.6924 20.5491 27.6924H20.5451ZM27.7491 13.8343L16.4387 27.1307L20.5451 27.1504C20.5451 27.1504 20.553 27.1504 20.557 27.1465L31.8555 13.8581L27.7491 13.8383V13.8343ZM20.5411 27.1227H16.4822L27.757 13.8581H31.8159L20.5411 27.1227ZM17.6532 26.5808H20.288L30.641 14.404H28.0062L17.6532 26.5808Z" fill="#E3DFD7"></path></g><g id="Group_6"><path id="Vector_5" d="M16.4506 27.4194H12.3561C12.2453 27.4194 12.1425 27.3561 12.099 27.2533C12.0515 27.1544 12.0673 27.0357 12.1385 26.9486L23.437 13.6602C23.4924 13.5969 23.5715 13.5613 23.6546 13.5613H27.7491C27.8599 13.5613 27.9628 13.6246 28.0063 13.7275C28.0498 13.8304 28.0379 13.9451 27.9667 14.0321L16.6682 27.3205C16.6128 27.3838 16.5337 27.4194 16.4506 27.4194ZM12.9693 26.8497H16.3161L27.132 14.131H23.7852L12.9693 26.8497Z" fill="#E3DFD7"></path><path id="Vector_6" d="M16.4506 27.6926H12.356C12.1384 27.6926 11.9406 27.566 11.8497 27.3682C11.7587 27.1704 11.7903 26.9409 11.9327 26.7748L23.2312 13.4864C23.338 13.3638 23.4923 13.2925 23.6545 13.2925H27.7491C27.9666 13.2925 28.1644 13.4191 28.2554 13.6169C28.3464 13.8108 28.3148 14.0442 28.1724 14.2103L16.8738 27.4988C16.767 27.6214 16.6127 27.6926 16.4506 27.6926ZM23.6545 13.8345L12.3442 27.1308L16.4506 27.1506C16.4506 27.1506 16.4585 27.1506 16.4624 27.1467L27.7609 13.8583L23.6545 13.8385V13.8345ZM16.4466 27.1229H12.3837L23.6585 13.8583H27.7174L16.4426 27.1229H16.4466ZM13.5587 26.5809H16.1934L26.5464 14.4042H23.9117L13.5587 26.5809Z" fill="#E3DFD7"></path></g></g><g id="Group_7"><g id="Group_8"><path id="Vector_7" d="M35.9421 14.131H31.8476C31.7645 14.131 31.6854 14.0954 31.63 14.0321L20.3315 0.739753C20.2603 0.656676 20.2444 0.537994 20.2919 0.435136C20.3394 0.332279 20.4383 0.268982 20.5491 0.268982H24.6436C24.7266 0.268982 24.8058 0.304586 24.8612 0.367883L36.1597 13.6563C36.2309 13.7394 36.2467 13.858 36.1992 13.9609C36.1517 14.0638 36.0528 14.1271 35.9421 14.1271V14.131ZM31.9781 13.5613H35.3249L24.5091 0.84261H21.1622L31.9781 13.5613Z" fill="#E3DFD7"></path><path id="Vector_8" d="M35.9421 14.404H31.8475C31.6853 14.404 31.5311 14.3328 31.4242 14.2102L20.1218 0.917806C19.9833 0.755607 19.9517 0.5222 20.0387 0.324397C20.1297 0.126594 20.3275 0 20.5451 0H24.6396C24.8018 0 24.9561 0.0712091 25.0629 0.197803L36.3614 13.4862C36.4999 13.6524 36.5315 13.8818 36.4445 14.0796C36.3535 14.2774 36.1557 14.404 35.9381 14.404H35.9421ZM20.5451 0.54198L31.8317 13.8541H35.9381C35.9381 13.8541 35.946 13.8541 35.95 13.8541L24.6515 0.545936H20.5451V0.54198ZM35.9104 13.8264H31.8515L31.7684 13.7315L20.5767 0.569673H24.6356L24.7187 0.664618L35.9144 13.8343L35.9104 13.8264ZM32.1007 13.2844H34.7355L24.3864 1.11165H21.7517L32.1047 13.2884L32.1007 13.2844Z" fill="#E3DFD7"></path></g><g id="Group_9"><path id="Vector_9" d="M31.8436 14.131H27.749C27.666 14.131 27.5868 14.0954 27.5315 14.0321L16.233 0.739753C16.1617 0.656676 16.1459 0.537994 16.1934 0.435136C16.2409 0.332279 16.3398 0.268982 16.4505 0.268982H20.5451C20.6281 0.268982 20.7073 0.304586 20.7626 0.367883L32.0611 13.6563C32.1324 13.7394 32.1482 13.858 32.1007 13.9609C32.0532 14.0638 31.9543 14.1271 31.8436 14.1271V14.131ZM27.8796 13.5613H31.2264L20.4145 0.84261H17.0677L27.8836 13.5613H27.8796Z" fill="#E3DFD7"></path><path id="Vector_10" d="M31.8436 14.404H27.7491C27.5869 14.404 27.4326 14.3328 27.3258 14.2102L16.0273 0.917806C15.8888 0.751651 15.8571 0.518244 15.9481 0.324397C16.0391 0.13055 16.2369 0 16.4545 0H20.549C20.7112 0 20.8655 0.0712091 20.9723 0.197803L32.2708 13.4862C32.4093 13.6524 32.441 13.8858 32.35 14.0796C32.259 14.2735 32.0612 14.404 31.8436 14.404ZM16.4506 0.54198L27.7372 13.8541H31.8436C31.8436 13.8541 31.8515 13.8541 31.8555 13.8541L20.5569 0.545936H16.4506V0.54198ZM31.8159 13.8264H27.757L16.4782 0.569673H20.5372L20.6202 0.664618L31.8159 13.8343V13.8264ZM28.0062 13.2844H30.6409L20.2879 1.11165H17.6532L28.0062 13.2884V13.2844Z" fill="#E3DFD7"></path></g><g id="Group_10"><path id="Vector_11" d="M27.7491 14.1311H23.6546C23.5715 14.1311 23.4924 14.0955 23.437 14.0322L12.1385 0.739814C12.0673 0.656737 12.0514 0.538055 12.0989 0.435197C12.1464 0.33234 12.2453 0.269043 12.3561 0.269043H16.4506C16.5337 0.269043 16.6128 0.304648 16.6682 0.367944L27.9667 13.6563C28.0379 13.7394 28.0537 13.8581 28.0062 13.961C27.9588 14.0638 27.8599 14.1271 27.7491 14.1271V14.1311ZM23.7851 13.5614H27.1319L16.3161 0.842672H12.9692L23.7851 13.5614Z" fill="#E3DFD7"></path><path id="Vector_12" d="M27.7491 14.404H23.6546C23.4924 14.404 23.3381 14.3328 23.2313 14.2102L11.9288 0.917806C11.7903 0.751651 11.7587 0.518244 11.8497 0.324397C11.9407 0.13055 12.1385 0 12.3561 0H16.4506C16.6128 0 16.7671 0.0712091 16.8739 0.197803L28.1724 13.4862C28.3108 13.6524 28.3425 13.8858 28.2555 14.0796C28.1645 14.2735 27.9667 14.404 27.7491 14.404ZM12.3521 0.54198L23.6387 13.8541H27.7451C27.7451 13.8541 27.753 13.8541 27.757 13.8541L16.4585 0.545936H12.3521V0.54198ZM27.7174 13.8264H23.6585L23.5754 13.7315L12.3838 0.569673H16.4466L27.7214 13.8343L27.7174 13.8264ZM23.9078 13.2844H26.5425L16.1934 1.11165H13.5587L23.9117 13.2884L23.9078 13.2844Z" fill="#E3DFD7"></path></g></g></g><g id="Group_11"><g id="Group_12"><g id="Group_13"><path id="Vector_13" d="M5.1521 14.131H1.05758C0.946807 14.131 0.84395 14.0677 0.800433 13.9649C0.756917 13.862 0.768785 13.7473 0.839994 13.6603L12.1385 0.371851C12.1939 0.308554 12.273 0.272949 12.3561 0.272949H12.451C12.6093 0.272949 12.7359 0.399543 12.7359 0.557785C12.7359 0.70416 12.629 0.822841 12.4906 0.838666L1.67077 13.5614H5.01759L14.1719 2.79692C14.2748 2.67823 14.4528 2.66241 14.5715 2.76527C14.6902 2.86812 14.706 3.04615 14.6031 3.16483L5.36573 14.0321C5.31034 14.0954 5.23122 14.131 5.14814 14.131H5.1521Z" fill="#E3DFD7"></path><path id="Vector_14" d="M5.15215 14.404H1.05763C0.840046 14.404 0.642243 14.2774 0.551254 14.0796C0.460265 13.8818 0.491913 13.6484 0.634331 13.4862L11.9328 0.197803C12.0396 0.0751651 12.1939 0 12.3561 0H12.4511C12.7557 0 13.0089 0.249232 13.0089 0.557804C13.0089 0.795168 12.8586 1.00088 12.641 1.08L2.26027 13.2884H4.89501L13.9662 2.61891C14.1641 2.3855 14.5161 2.35781 14.7495 2.55561C14.8643 2.65056 14.9315 2.78507 14.9434 2.9354C14.9553 3.08177 14.9078 3.22814 14.8128 3.33891L5.57545 14.2062C5.46864 14.3288 5.31435 14.4001 5.15215 14.4001V14.404ZM12.3561 0.54198L1.04576 13.8383L5.15215 13.8581C5.15215 13.8581 5.16006 13.8581 5.16006 13.8541L14.4014 2.98682L5.14819 13.8304H1.08532L12.3482 0.581541L12.4511 0.569673L12.3522 0.54198H12.3561Z" fill="#E3DFD7"></path></g><g id="Group_14"><path id="Vector_15" d="M9.24664 14.131H5.15212C5.04135 14.131 4.93849 14.0677 4.89498 13.9649C4.85146 13.862 4.86333 13.7473 4.93454 13.6603L14.1719 2.79694C14.2748 2.67825 14.4528 2.66243 14.5715 2.76529C14.6902 2.86814 14.706 3.04617 14.6031 3.16485L5.76531 13.5614H9.11214L16.233 5.18244C16.3359 5.06376 16.5139 5.04793 16.6326 5.15079C16.7513 5.25365 16.7671 5.43167 16.6643 5.55035L9.45631 14.0282C9.40093 14.0915 9.32181 14.1271 9.23873 14.1271L9.24664 14.131Z" fill="#E3DFD7"></path><path id="Vector_16" d="M9.24663 14.404H5.15211C4.93453 14.404 4.73673 14.2774 4.64574 14.0796C4.55475 13.8818 4.5864 13.6484 4.72881 13.4862L13.9662 2.61892C14.164 2.38551 14.5161 2.35782 14.7495 2.55562C14.9829 2.75342 15.0106 3.10551 14.8128 3.33892L6.35475 13.2884H8.98949L16.0313 5.00442C16.1262 4.88969 16.2607 4.82244 16.4111 4.81057C16.5574 4.7987 16.7038 4.84618 16.8146 4.94112C16.9293 5.03607 16.9966 5.17057 17.0084 5.3209C17.0203 5.46728 16.9728 5.61365 16.8779 5.72442L9.66993 14.2023C9.56312 14.3249 9.40883 14.3961 9.24663 14.3961V14.404ZM14.4014 2.99079L5.1442 13.8423L9.25059 13.862C9.25059 13.862 9.2585 13.862 9.26246 13.8581L16.4704 5.38025L9.24663 13.8383H5.18772L14.4014 2.98683V2.99079Z" fill="#E3DFD7"></path></g><g id="Group_15"><path id="Vector_17" d="M13.3451 14.1311H9.25057C9.1398 14.1311 9.03694 14.0678 8.99343 13.9649C8.94991 13.8621 8.96178 13.7474 9.03299 13.6603L16.2409 5.18249C16.3438 5.06381 16.5218 5.04799 16.6405 5.15085C16.7592 5.2537 16.775 5.43173 16.6721 5.55041L9.86376 13.5575H13.2106L18.2625 7.61547C18.3653 7.49679 18.5434 7.48096 18.662 7.58382C18.7807 7.68668 18.7965 7.8647 18.6937 7.98338L13.5587 14.0243C13.5033 14.0876 13.4242 14.1232 13.3411 14.1232L13.3451 14.1311Z" fill="#E3DFD7"></path><path id="Vector_18" d="M13.3451 14.404H9.25056C9.03298 14.404 8.83518 14.2774 8.74419 14.0796C8.6532 13.8858 8.68484 13.6524 8.82726 13.4862L16.0352 5.00838C16.233 4.77497 16.5851 4.74728 16.8185 4.94508C16.9332 5.04003 17.0005 5.17454 17.0124 5.32487C17.0242 5.47124 16.9767 5.61761 16.8818 5.72838L10.4532 13.2884H13.0879L18.0567 7.44136C18.2546 7.20795 18.6066 7.18026 18.84 7.37806C19.0735 7.57586 19.1011 7.92795 18.9033 8.16136L13.7684 14.2023C13.6616 14.3249 13.5073 14.3961 13.3451 14.3961V14.404ZM16.4664 5.38025L9.23869 13.8383L13.3451 13.8581C13.3451 13.8581 13.353 13.8581 13.357 13.8541L18.4919 7.81323L13.3372 13.8344H9.27825L16.4664 5.38025Z" fill="#E3DFD7"></path></g></g><g id="Group_16"><g id="Group_17"><path id="Vector_19" d="M12.3561 27.4194C12.277 27.4194 12.1939 27.3838 12.1386 27.3205L0.840055 14.0321C0.737197 13.9134 0.753022 13.7314 0.871703 13.6325C0.990385 13.5297 1.17236 13.5455 1.27127 13.6642L12.5698 26.9526C12.6726 27.0713 12.6568 27.2532 12.5381 27.3521C12.4827 27.3996 12.4194 27.4194 12.3522 27.4194H12.3561Z" fill="#E3DFD7"></path><path id="Vector_20" d="M12.3561 27.6926C12.1939 27.6926 12.0396 27.6213 11.9328 27.4948L0.634295 14.2064C0.53935 14.0916 0.491877 13.9492 0.503745 13.8028C0.515614 13.6565 0.586823 13.522 0.697592 13.4231C0.931 13.2252 1.28309 13.2529 1.48089 13.4863L12.7794 26.7748C12.8743 26.8855 12.9218 27.0319 12.9099 27.1783C12.8981 27.3246 12.8269 27.4592 12.7161 27.5581C12.6172 27.6451 12.4866 27.6886 12.3561 27.6886V27.6926ZM1.06551 13.8384L12.3442 27.1466H12.3561H12.364L1.06551 13.8384Z" fill="#E3DFD7"></path></g><g id="Group_18"><path id="Vector_21" d="M14.168 24.7135C14.0889 24.7135 14.0058 24.6779 13.9504 24.6146L4.93453 14.0321C4.86332 13.949 4.8475 13.8304 4.89102 13.7275C4.93849 13.6286 5.03739 13.5613 5.14816 13.5613H9.24268C9.32576 13.5613 9.40488 13.5969 9.46026 13.6602L16.6366 22.1025C16.7394 22.2212 16.7236 22.4031 16.6049 22.502C16.4862 22.6049 16.3042 22.5891 16.2053 22.4704L9.11213 14.1271H5.7653L14.3816 24.2387C14.4845 24.3574 14.4686 24.5394 14.35 24.6383C14.2946 24.6858 14.2313 24.7056 14.164 24.7056L14.168 24.7135Z" fill="#E3DFD7"></path><path id="Vector_22" d="M14.168 24.9825C14.0058 24.9825 13.8515 24.9113 13.7447 24.7887L4.72881 14.2062C4.5864 14.04 4.55475 13.8066 4.64574 13.6128C4.73673 13.415 4.93453 13.2884 5.15211 13.2884H9.24663C9.40883 13.2884 9.56312 13.3596 9.66993 13.4822L16.8462 21.9245C17.044 22.1579 17.0163 22.51 16.7829 22.7078C16.5495 22.9056 16.1974 22.8779 15.9996 22.6445L8.98949 14.3961H6.35475L14.5873 24.0607C14.7851 24.2941 14.7574 24.6462 14.524 24.844C14.4251 24.9311 14.2946 24.9785 14.164 24.9785L14.168 24.9825ZM5.15211 13.8304L14.168 24.4366H14.1759L5.1798 13.8581H9.23872L16.415 22.2963L9.2585 13.8343H5.15211V13.8304Z" fill="#E3DFD7"></path></g><g id="Group_19"><path id="Vector_23" d="M16.4269 22.5733C16.3478 22.5733 16.2647 22.5377 16.2093 22.4744L9.03301 14.0322C8.9618 13.9491 8.94597 13.8304 8.99344 13.7276C9.04092 13.6247 9.13982 13.5614 9.25059 13.5614H13.3451C13.4282 13.5614 13.5073 13.597 13.5627 13.6603L18.666 19.6656C18.7689 19.7843 18.753 19.9663 18.6344 20.0652C18.5157 20.168 18.3337 20.1522 18.2348 20.0335L13.2146 14.1311H9.86773L16.6445 22.1025C16.7473 22.2212 16.7315 22.4032 16.6128 22.5021C16.5574 22.5496 16.4941 22.5693 16.4269 22.5693V22.5733Z" fill="#E3DFD7"></path><path id="Vector_24" d="M16.4269 22.8462C16.2647 22.8462 16.1104 22.775 16.0036 22.6524L8.82731 14.2102C8.68884 14.044 8.6572 13.8106 8.74819 13.6168C8.83918 13.4229 9.03698 13.2924 9.25456 13.2924H13.3491C13.5113 13.2924 13.6656 13.3636 13.7724 13.4862L18.8757 19.4915C18.9706 19.6062 19.0181 19.7486 19.0062 19.895C18.9944 20.0414 18.9232 20.1759 18.8124 20.2748C18.6977 20.3697 18.5553 20.4172 18.4089 20.4054C18.2625 20.3935 18.128 20.3262 18.0291 20.2115L13.0919 14.404H10.4572L16.8542 21.9284C17.052 22.1618 17.0243 22.5139 16.7909 22.7117C16.692 22.7988 16.5614 22.8462 16.4309 22.8462H16.4269ZM9.25061 13.8343L16.4269 22.3043H16.4348L9.2783 13.866H13.3372L18.4366 19.8634L13.353 13.8423H9.24665L9.25061 13.8343Z" fill="#E3DFD7"></path></g></g></g></g></svg>