<svg xmlns="http://www.w3.org/2000/svg" width="61" height="80" viewBox="0 0 61 80" fill="none"><g id="Assinaturas" clip-path="url(#clip0_11_91)"><path id="Vector" d="M42.4543 3.18424C38.7919 1.09572 34.6798 0.000610352 30.5 0.000610352C26.3202 0.000610352 22.2081 1.09572 18.5457 3.18424C14.7763 5.33239 11.4769 8.26688 8.85547 11.8028C3.15001 19.3435 0 29.3583 0 39.9977C0 50.6372 3.15001 60.652 8.85547 68.1927C11.4769 71.7285 14.7763 74.663 18.5457 76.8112C22.2081 78.8997 26.3202 79.9948 30.5 79.9948C34.6798 79.9948 38.7919 78.8997 42.4543 76.8112C46.2237 74.663 49.5231 71.7285 52.1445 68.1927C57.8539 60.652 61 50.6372 61 39.9977C61 29.3583 57.85 19.3435 52.1445 11.8028C49.5231 8.26688 46.2237 5.33239 42.4543 3.18424ZM30.5 77.9666C14.7499 77.9666 1.95301 60.9296 1.95301 39.9977C1.95301 19.0658 14.7578 2.02885 30.5 2.02885C46.2422 2.02885 59.0627 19.0577 59.0627 39.9977C59.0627 60.9378 46.2383 77.9666 30.5 77.9666Z" fill="#BA2A68"></path><path id="Vector_2" d="M29.5983 54.8181H31.764V34.0985L29.5983 32.9758V54.8181Z" fill="#BA2A68"></path><path id="Vector_3" d="M45.6083 38.9691C44.2902 36.2719 42.3237 33.9727 39.8986 32.2935C37.4735 30.6143 34.6717 29.6119 31.764 29.383V22.2343H29.0077V23.3651L29.5983 23.6713V29.3504C26.6244 29.5197 23.7459 30.4977 21.2522 32.1862C18.7584 33.8747 16.7372 36.214 15.3918 38.9691V29.7464L13.2261 29.7831V54.8181H15.9824V53.6831L15.3918 53.3769V45.8362C15.6044 38.4874 22.0068 32.5716 29.9606 32.3185C30.441 32.3185 30.9253 32.3185 31.386 32.3185C39.1507 32.7267 45.3956 38.6589 45.6043 45.8199V53.3606L45.0137 53.6668V54.8017H47.77V29.7913L45.6043 29.7545L45.6083 38.9691Z" fill="#BA2A68"></path></g><defs><clipPath id="clip0_11_91"><rect width="61" height="80" fill="white"></rect></clipPath></defs></svg>